<?xml version="1.0" encoding="utf-8"?>
<!-- Generator: Adobe Illustrator 16.0.0, SVG Export Plug-In . SVG Version: 6.00 Build 0)  -->
<!DOCTYPE svg PUBLIC "-//W3C//DTD SVG 1.1//EN" "http://www.w3.org/Graphics/SVG/1.1/DTD/svg11.dtd">
<svg version="1.1" id="레이어_1" xmlns="http://www.w3.org/2000/svg" xmlns:xlink="http://www.w3.org/1999/xlink" x="0px"
	 y="0px" width="220px" height="60px" viewBox="30 10 220 60" enable-background="new 30 10 220 60" xml:space="preserve">
<g>
	<path fill="#3B4B52" d="M92.876,38.688c-0.101-0.456-0.496-0.673-0.78-0.955c-4.322-4.305-8.654-8.603-12.978-12.906
		c-0.271-0.271-0.564-0.544-0.747-0.873c-0.563-1.026,0.011-2.058,1.178-2.171c0.268-0.025,0.542-0.009,0.813-0.009
		c10.812,0,21.627,0,32.439,0c1.936,0,2.291,0.355,2.291,2.296c0.001,5.177,0.006,10.352,0.001,15.523
		c-0.001,1.625-0.437,2.067-2.053,2.072c-4.2,0.007-8.401,0.003-12.611,0.003c-0.099,0.563,0.343,0.719,0.584,0.961
		c4.295,4.281,8.599,8.546,12.898,12.825c0.326,0.322,0.686,0.647,0.919,1.034c0.61,1.021,0.065,2.065-1.106,2.186
		c-0.305,0.028-0.617,0.013-0.924,0.013c-10.813,0-21.626,0-32.439,0c-1.886,0-2.209-0.328-2.212-2.231
		c0-5.178-0.001-10.351,0.002-15.528c0-1.708,0.395-2.096,2.127-2.099c3.823-0.003,7.647,0.004,11.47-0.005
		C92.116,38.822,92.511,38.95,92.876,38.688z"/>
	<path fill="#1B9FB3" d="M35.477,40.265c0-5.447,0-10.891,0-16.334c0.001-1.769,0.393-2.183,2.182-2.186
		c10.889-0.008,21.782-0.008,32.671-0.002c1.73,0,2.203,0.485,2.203,2.21c0.001,10.892,0,21.781,0.003,32.671
		c0,0.807-0.04,1.604-0.911,1.946c-0.872,0.342-1.546-0.099-2.158-0.717c-4.887-4.927-9.799-9.829-14.666-14.78
		c-0.636-0.649-0.979-0.662-1.621-0.005c-4.587,4.677-9.217,9.316-13.839,13.966c-0.542,0.544-1.082,1.072-1.823,1.382
		c-1.197,0.504-1.967,0.079-2.025-1.239c-0.043-0.996-0.016-2.005-0.019-3.01C35.477,49.533,35.477,44.896,35.477,40.265z"/>
</g>
<g>
	<path d="M149.568,52.822c0-1.811,0.509-3.308,1.361-4.7l0.667,0.286c-0.794,1.324-1.16,2.875-1.16,4.413
		c0,1.544,0.366,3.096,1.16,4.41l-0.667,0.29C150.077,56.135,149.568,54.65,149.568,52.822z"/>
	<path d="M159.985,53.538h-3.298v2.881h-0.949v-2.881h-3.251v-0.762h7.51L159.985,53.538z M152.9,51.427
		c1.578-0.216,2.748-1.125,2.804-2.088h-2.53v-0.767h6.114v0.767h-2.51c0.057,0.963,1.222,1.872,2.806,2.088l-0.342,0.743
		c-1.365-0.2-2.495-0.884-3.001-1.804c-0.511,0.92-1.626,1.604-2.994,1.804L152.9,51.427z"/>
	<path d="M160.9,57.231c0.793-1.311,1.162-2.866,1.162-4.409c0-1.539-0.37-3.088-1.162-4.413l0.662-0.289
		c0.868,1.395,1.372,2.889,1.372,4.702c0,1.828-0.504,3.313-1.372,4.708L160.9,57.231z"/>
	<path d="M168.551,51.643c0,1.795-0.887,2.924-2.129,2.924s-2.135-1.129-2.135-2.924c0-1.791,0.893-2.93,2.135-2.93
		S168.551,49.852,168.551,51.643z M167.64,51.643c0-1.295-0.503-2.073-1.218-2.073c-0.725,0-1.228,0.778-1.228,2.073
		c0,1.298,0.502,2.078,1.228,2.078C167.14,53.721,167.64,52.94,167.64,51.643z M171.936,52.133h-1.295v4.286h-0.945v-8.312h0.945
		v3.245h1.298v0.777h-0.003V52.133z"/>
	<path d="M177.095,52.664c-0.888-0.324-1.535-0.944-1.891-1.754c-0.367,0.92-1.07,1.646-2.071,2.003l-0.494-0.762
		c1.33-0.446,2.058-1.575,2.058-2.784v-0.822h0.959v0.772c0,1.15,0.687,2.189,1.948,2.603L177.095,52.664z M179.587,54.818
		c0,0.998-1.066,1.587-2.8,1.587c-1.731,0-2.798-0.589-2.798-1.587c0-1.002,1.066-1.596,2.798-1.596
		C178.52,53.223,179.587,53.811,179.587,54.818z M178.642,54.818c0-0.547-0.679-0.85-1.857-0.85s-1.849,0.303-1.849,0.85
		c0,0.54,0.671,0.846,1.849,0.846C177.959,55.664,178.642,55.358,178.642,54.818z M178.604,50.53h-1.683v-0.769h1.683v-1.665h0.946
		v4.898h-0.946V50.53z"/>
	<path d="M182.515,48.782v2.119h2.103v-2.119h0.949v5.666h-3.988v-5.666H182.515z M182.515,53.686h2.103v-2.031h-2.103V53.686z
		 M187.969,48.095v8.325h-0.956v-8.325H187.969z"/>
	<path d="M191.539,52.843c-1.093,0-1.887-0.85-1.887-2.056c0-1.201,0.794-2.051,1.887-2.051c1.106,0,1.906,0.85,1.906,2.051
		C193.445,51.992,192.644,52.843,191.539,52.843z M191.539,52.029c0.605,0,1.049-0.486,1.049-1.242c0-0.751-0.438-1.244-1.049-1.244
		c-0.587,0-1.03,0.493-1.03,1.244C190.509,51.543,190.95,52.029,191.539,52.029z M196.854,55.478v0.771h-5.722v-2.735h0.956v1.966
		L196.854,55.478L196.854,55.478z M194.857,54.034h-0.894v-5.771h0.894v2.225h0.863v-2.372h0.902v6.214h-0.902v-3.06h-0.863V54.034z
		"/>
	<path d="M202.583,48.263h0.887v7.748h-0.887v-3.981H201.7c-0.081,1.619-0.759,2.612-1.775,2.612c-1.074,0-1.783-1.131-1.783-2.953
		c0-1.818,0.709-2.939,1.783-2.939c0.995,0,1.666,0.946,1.769,2.499h0.89V48.263z M200.849,51.688c0-1.31-0.353-2.049-0.919-2.049
		c-0.571,0-0.92,0.739-0.92,2.049c0,1.316,0.354,2.063,0.92,2.063S200.849,53.005,200.849,51.688z M205.15,48.107v8.287h-0.905
		v-8.287H205.15z"/>
	<path d="M214.042,54.558v0.781h-7.517v-0.781H214.042z M213.308,52.94c-1.351-0.276-2.518-1.143-3.062-2.285
		c-0.542,1.146-1.709,2.008-3.058,2.285l-0.408-0.777c1.637-0.308,2.964-1.587,2.964-2.902V48.64h1.006v0.621
		c0,1.327,1.332,2.604,2.97,2.902L213.308,52.94z"/>
</g>
<g>
	<g>
		<path d="M131.843,38.738h-7.79l-1.917,6.394h-3.593l7.425-22.394h4.077l7.428,22.394h-3.746L131.843,38.738z M130.988,35.97
			l-0.88-3.012c-0.762-2.435-1.431-4.931-2.132-7.455h-0.124c-0.636,2.556-1.338,5.02-2.066,7.455l-0.914,3.012H130.988z"/>
		<path d="M138.843,42.235l2.07-2.432c1.613,1.614,3.801,2.65,5.959,2.65c2.711,0,4.23-1.277,4.23-3.164
			c0-2.039-1.52-2.678-3.589-3.592l-3.101-1.338c-2.167-0.913-4.563-2.614-4.563-5.872c0-3.529,3.104-6.177,7.359-6.177
			c2.616,0,5.084,1.095,6.783,2.831l-1.854,2.251c-1.399-1.246-2.949-2.01-4.931-2.01c-2.28,0-3.771,1.097-3.771,2.889
			c0,1.919,1.797,2.646,3.618,3.38l3.074,1.306c2.649,1.125,4.565,2.769,4.565,6.056c0,3.59-2.981,6.512-7.879,6.512
			C143.737,45.523,140.879,44.304,138.843,42.235z"/>
		<path d="M158.803,35.512V22.736h3.529v13.021c0,5.049,2.007,6.692,4.808,6.692c2.831,0,4.897-1.645,4.897-6.692V22.736h3.408
			v12.776c0,7.306-3.345,10.011-8.306,10.011C162.182,45.523,158.803,42.813,158.803,35.512z"/>
		<path d="M181.232,22.736h3.617l7.424,13.142l2.342,4.747h0.153c-0.185-2.313-0.455-5.021-0.455-7.453V22.736h3.347v22.392h-3.623
			l-7.422-13.205l-2.338-4.686h-0.153c0.178,2.31,0.455,4.899,0.455,7.333v10.559h-3.347V22.736z"/>
		<path d="M202.353,33.992c0-7.302,4.499-11.685,10.436-11.685c3.163,0,5.293,1.401,6.664,2.832l-1.915,2.253
			c-1.099-1.124-2.467-2.01-4.625-2.01c-4.176,0-6.939,3.226-6.939,8.491c0,5.324,2.465,8.581,7.088,8.581
			c1.369,0,2.74-0.394,3.528-1.091V36.09h-4.444V33.2h7.639v9.708c-1.491,1.489-4.015,2.616-7.087,2.616
			C206.696,45.523,202.353,41.322,202.353,33.992z"/>
	</g>
	<g>
		<path d="M226.591,37.808h2.284c1.521,0,2.606,0.481,2.606,1.818c0,0.706-0.391,1.378-1.047,1.597v0.05
			c0.836,0.181,1.452,0.75,1.452,1.757c0,1.464-1.192,2.168-2.824,2.168h-2.472V37.808z M228.742,40.894
			c1.129,0,1.598-0.422,1.598-1.117c0-0.771-0.519-1.066-1.562-1.066h-1.026v2.179h0.993v0.004H228.742z M228.93,44.285
			c1.15,0,1.813-0.413,1.813-1.312c0-0.837-0.646-1.198-1.813-1.198h-1.178v2.51H228.93z"/>
		<path d="M238.916,45.331c-0.542-0.134-1.156-0.415-1.755-0.817c-0.587,0.502-1.307,0.817-2.201,0.817
			c-1.418,0-2.306-0.899-2.306-2.058c0-1.017,0.67-1.628,1.42-2.129c-0.299-0.583-0.475-1.156-0.475-1.667
			c0-1.002,0.711-1.806,1.792-1.806c0.978,0,1.565,0.624,1.565,1.526c0,0.973-0.82,1.587-1.633,2.169
			c0.467,0.662,1.1,1.312,1.755,1.832c0.432-0.556,0.767-1.253,0.994-2.045h1.063c-0.28,0.957-0.703,1.839-1.29,2.602
			c0.499,0.312,0.969,0.53,1.358,0.626L238.916,45.331z M235.104,44.423c0.44,0,0.88-0.19,1.271-0.502
			c-0.679-0.584-1.333-1.276-1.83-1.998c-0.445,0.379-0.791,0.772-0.791,1.27C233.758,43.929,234.334,44.423,235.104,44.423z
			 M234.877,40.63c0.65-0.412,1.168-0.813,1.168-1.426c0-0.4-0.19-0.731-0.644-0.731c-0.496,0-0.834,0.412-0.834,0.992
			C234.567,39.829,234.692,40.229,234.877,40.63z"/>
		<path d="M239.845,44.24l0.684-0.802c0.529,0.531,1.251,0.875,1.962,0.875c0.895,0,1.396-0.424,1.396-1.045
			c0-0.67-0.504-0.882-1.183-1.185l-1.028-0.442c-0.708-0.297-1.5-0.862-1.5-1.935c0-1.162,1.02-2.04,2.429-2.04
			c0.858,0,1.67,0.361,2.236,0.936l-0.614,0.743c-0.462-0.412-0.973-0.663-1.621-0.663c-0.749,0-1.244,0.363-1.244,0.953
			c0,0.635,0.595,0.874,1.189,1.116l1.015,0.432c0.875,0.372,1.507,0.913,1.507,1.996c0,1.185-0.986,2.149-2.593,2.149
			C241.456,45.331,240.518,44.923,239.845,44.24z"/>
	</g>
</g>
</svg>
