<svg xmlns="http://www.w3.org/2000/svg" xmlns:xlink="http://www.w3.org/1999/xlink" viewBox="0 0 297.28 64.53"><defs><style>.cls-1{fill:url(#무제_그라디언트_154);}.cls-2{fill:url(#무제_그라디언트_154-2);}.cls-3{fill:url(#무제_그라디언트_154-3);}.cls-4{fill:url(#무제_그라디언트_154-4);}.cls-5{fill:#1470b8;}</style><linearGradient id="무제_그라디언트_154" y1="47.79" x2="50.75" y2="47.79" gradientUnits="userSpaceOnUse"><stop offset="0" stop-color="#455ea9"/><stop offset="0.52" stop-color="#55afd5"/><stop offset="1" stop-color="#8dccb5"/></linearGradient><linearGradient id="무제_그라디언트_154-2" x1="0.86" y1="25.38" x2="33.14" y2="25.38" xlink:href="#무제_그라디언트_154"/><linearGradient id="무제_그라디언트_154-3" x1="31.93" y1="39.16" x2="64.22" y2="39.16" xlink:href="#무제_그라디언트_154"/><linearGradient id="무제_그라디언트_154-4" x1="13.96" y1="17.1" x2="64.71" y2="17.1" xlink:href="#무제_그라디언트_154"/></defs><g id="Layer_2" data-name="Layer 2"><g id="레이어_1" data-name="레이어 1"><path class="cls-1" d="M46.84,52.1A25.36,25.36,0,0,0,50,32.45,25.22,25.22,0,0,1,25.58,51.64a24.9,24.9,0,0,1-13.42-3.9A25.4,25.4,0,0,1,1,31.65,25.38,25.38,0,0,0,46.84,52.1Z"/><path class="cls-2" d="M13.15,25.58a24.93,24.93,0,0,1,3.66-13A25.34,25.34,0,0,1,33.14,1,25.62,25.62,0,0,0,26.2,0a25.38,25.38,0,0,0-14,46.5A25.35,25.35,0,0,0,32.33,50,25.21,25.21,0,0,1,13.15,25.58Z"/><path class="cls-3" d="M64.22,39.16A25.37,25.37,0,0,0,38.87,13.78a25.67,25.67,0,0,0-6.94,1A25.29,25.29,0,0,1,51.71,36a25.09,25.09,0,0,1,0,6.63,24.87,24.87,0,0,1-3.27,9.43,25.34,25.34,0,0,1-15.7,11.68A25.36,25.36,0,0,0,64.22,39.16Z"/><path class="cls-4" d="M64.71,25.75A25.38,25.38,0,1,0,15,33.42a25.15,25.15,0,0,1,49-1.53A25.41,25.41,0,0,0,64.71,25.75Z"/><rect class="cls-5" x="104.62" y="11.94" width="5.9" height="39.65"/><path class="cls-5" d="M97.23,24.58H95.29c-.07-.81-.17-1.63-.28-2.45a12.86,12.86,0,0,0-1.22-3.94,8.52,8.52,0,0,0-2.73-3.14,8.07,8.07,0,0,0-4.7-1.28,7.83,7.83,0,0,0-5.13,1.6,9,9,0,0,0-2.68,3.75,15.9,15.9,0,0,0-1,4.49c-.13,1.49-.19,2.91-.19,4.22s.06,2.73.19,4.22a15.83,15.83,0,0,0,1,4.49,9.09,9.09,0,0,0,2.68,3.76,7.83,7.83,0,0,0,5.13,1.59,8,8,0,0,0,4.9-1.41A8.58,8.58,0,0,0,94,37.05a14.4,14.4,0,0,0,1.14-4.24c.1-.89.18-1.76.23-2.6h1.87V50.76h5.9V11.94h-5.9Zm-9.3,11.14a2.53,2.53,0,0,1-3.14,0,4.84,4.84,0,0,1-1-2,12.23,12.23,0,0,1-.44-2.85c0-1.12-.06-2.14-.06-3.05s0-2,.06-3.11a12.32,12.32,0,0,1,.44-2.87,5,5,0,0,1,1-2,1.92,1.92,0,0,1,1.57-.54,2,2,0,0,1,1.57.55,4.75,4.75,0,0,1,1,1.95,12.48,12.48,0,0,1,.46,2.89c0,1.13.08,2.14.08,3s0,2-.08,3.09A12.39,12.39,0,0,1,89,33.77,4.75,4.75,0,0,1,87.93,35.72Z"/><polygon class="cls-5" points="138.65 37.12 144.55 37.12 144.55 14.37 118.06 14.37 118.06 19.99 138.65 19.99 138.65 23.75 117.94 23.75 117.94 29.37 138.65 29.37 138.65 37.12"/><polygon class="cls-5" points="132.11 39.97 132.11 30.63 126.21 30.63 126.21 39.97 113.29 39.97 113.29 45.6 149.28 45.6 149.28 39.97 132.11 39.97"/><path class="cls-5" d="M159.27,36h22.57V30.39H161.05v-3h19.48V21.8H161.05V19.31h20.07V13.69h-26V31.81a4,4,0,0,0,1.22,3.33A4.51,4.51,0,0,0,159.27,36Z"/><rect class="cls-5" x="150.34" y="39.93" width="36" height="5.62"/><path class="cls-5" d="M208.71,39.93V36.05h10.5V30.43H198.3v-3h19.91V13.65H192.39v5.62h19.92v2.57H192.39v9.93a4.25,4.25,0,0,0,1.08,3.12,4.58,4.58,0,0,0,3.13,1.16h6.21v3.88H187.59v5.62h35.55V39.93Z"/><polygon class="cls-5" points="230.99 42.18 251.11 42.18 251.11 52.59 257.01 52.59 257.01 36.55 230.99 36.55 230.99 42.18"/><path class="cls-5" d="M233.09,34c.95,0,2.12-.09,3.46-.18s2.77-.2,4.27-.32,3-.25,4.56-.4,3-.3,4.31-.46l1.6-.19L250.2,26.8l-1.4.18c-1.23.16-2.54.31-3.92.45s-2.74.28-4.07.4-2.59.21-3.8.29-2,.12-2.86.15V13.53h-5.9V29.38A4.47,4.47,0,0,0,229.54,33a4.91,4.91,0,0,0,3.32,1Z"/><rect class="cls-5" x="251.55" y="11.94" width="5.9" height="23.96"/><path class="cls-5" d="M268.13,35.29l.23-.1c1.15-.63,2.29-1.33,3.4-2.08s2.14-1.52,3.13-2.29,1.9-1.56,2.75-2.33,1.5-1.38,2.18-2.06c1.22.81,2.61,1.79,4.14,2.95A85.85,85.85,0,0,1,290.5,35l1.07,1,4-4-1.1-1.05c-1.18-1.13-2.4-2.22-3.61-3.23s-2.35-1.93-3.45-2.8-2.17-1.68-3.15-2.36l-1.75-1.21a9.38,9.38,0,0,0,.06-1.08V13.65h-6v6.43a2.81,2.81,0,0,1-.2,1.14,5.84,5.84,0,0,1-.7,1.12c-.51.51-1.16,1.13-2,1.86S272,25.76,271,26.56s-2.07,1.62-3.15,2.4a27.49,27.49,0,0,1-3.09,1.92l-1.63.85,2.23,2.72A2.44,2.44,0,0,0,268.13,35.29Z"/><rect class="cls-5" x="261.64" y="39.9" width="35.64" height="5.62"/></g></g></svg>